<svg width="812" height="454" viewBox="0 0 812 454" fill="none" xmlns="http://www.w3.org/2000/svg">
<path d="M787.788 90.1032C768.541 51.4215 728.25 23.186 680.388 8.49936C658.318 1.77661 632.655 -1.01592 609.173 0.328627C582.483 1.67318 561.439 9.84391 537.188 17.3941H536.803C514.348 16.5667 493.304 17.6009 472.773 25.1511C452.243 32.8047 432.482 38.4932 414.775 50.2838C381.797 72.3138 358.059 103.135 346.254 136.128C336.759 162.502 334.577 195.495 351.515 220.628C350.617 221.662 349.847 222.8 348.949 223.834C346.254 227.144 340.608 233.763 337.528 239.969C335.732 244.933 335.219 249.794 339.453 250.829C343.303 250.105 345.741 247.622 348.179 245.244C348.435 245.037 348.692 244.726 348.949 244.52C348.435 245.347 347.794 246.278 347.28 247.105C344.586 251.449 342.533 256 340.608 260.551C332.781 279.478 336.887 297.888 340.736 316.918C344.971 337.604 352.67 357.152 361.395 376.803C365.116 385.18 370.249 392.937 376.023 400.591C382.182 408.658 400.916 425.724 392.961 435.756C392.576 436.273 392.448 436.687 392.576 436.997C391.421 438.652 390.395 440.41 389.625 442.375C388.598 445.478 391.934 450.753 396.554 449.408C396.939 449.925 397.324 450.546 397.965 451.063C401.686 454.58 411.31 453.235 416.058 449.925C417.597 450.339 419.651 450.443 422.217 450.339C438.513 449.719 453.013 438.548 459.172 426.965C467.897 410.727 464.304 389.628 463.15 372.666C461.61 350.739 464.689 329.847 470.079 308.541C485.605 311.333 502.414 311.644 516.786 308.851C527.564 325.193 535.905 342.568 540.011 360.875C542.962 374.424 545.657 387.973 545.785 401.832C545.785 412.795 540.524 423.241 539.497 433.998C539.112 435.239 538.984 436.48 539.241 437.721C539.241 437.928 539.241 438.031 539.241 438.238C539.241 438.755 539.497 439.066 539.754 439.272C540.139 439.996 540.524 440.824 541.166 441.444C542.449 442.892 545.528 444.134 547.838 443.823C548.864 443.823 549.634 443.513 550.276 443.099C550.918 444.134 552.201 444.961 554.125 445.685C559.001 447.34 564.904 445.375 569.267 442.686C570.678 445.788 574.784 446.306 578.505 446.202C584.665 446.099 589.284 443.203 593.775 440.307C596.598 438.549 599.549 436.48 601.859 434.101C607.248 429.033 611.226 422.104 615.332 416.932C623.031 407.417 628.549 396.867 633.553 386.318C639.712 373.079 644.203 359.427 647.539 345.671C668.968 333.984 681.03 306.162 678.72 285.89C686.932 279.995 694.374 273.479 701.175 266.55C699.892 276.582 701.945 287.442 702.33 297.578C702.715 308.127 700.277 318.366 699.635 328.813C695.401 332.639 692.45 337.294 696.171 341.741C698.866 344.844 704.768 345.257 709.131 343.603C710.157 345.878 712.724 347.429 715.803 348.05C720.679 349.084 727.352 347.429 732.613 344.637C735.179 346.912 739.927 347.74 744.033 347.843C765.461 348.36 785.35 332.432 782.527 315.16L782.399 314.953C801.133 286.304 806.779 250.725 810.115 219.801C814.863 177.602 807.549 129.509 787.788 90.1032Z" fill="black"/>
<path d="M672.689 302.852C670.636 309.368 667.3 315.884 663.964 322.09C660.243 329.123 654.212 334.191 648.823 339.983C650.747 330.881 652.159 321.78 653.185 312.575C653.57 308.541 653.955 304.404 654.212 300.37C662.552 296.44 670.123 291.889 677.052 287.028C674.229 291.682 674.229 297.681 672.689 302.852Z" fill="#B07958"/>
<path d="M804.726 213.802C803.443 247.829 794.974 281.443 777.78 312.264C779.961 317.332 779.448 322.71 776.753 327.365C775.855 329.33 774.7 331.295 772.904 333.363C769.439 337.294 764.178 339.776 758.533 341.327C756.479 342.155 754.298 342.879 752.117 343.396C748.396 344.223 742.365 345.775 738.515 344.327C730.431 341.327 735.051 333.88 739.285 329.226C735.051 330.674 732.613 335.122 731.33 338.431C731.073 339.052 730.945 339.672 730.945 340.293C729.405 340.81 727.737 341.327 726.197 341.637C722.347 343.499 716.958 344.327 713.879 341.327C711.312 338.742 711.697 334.501 713.109 330.778C712.467 331.398 711.826 332.019 711.312 332.536C709.901 334.294 709.388 336.57 709.003 338.742C708.874 338.742 708.618 338.742 708.489 338.742C708.489 338.845 708.489 339.052 708.489 339.155C708.489 339.569 708.104 340.086 707.591 340.19C694.631 342.361 701.304 329.64 706.308 323.745C705.538 324.158 704.768 324.675 703.998 325.193C705.923 316.815 706.18 308.127 706.436 299.646C706.565 294.061 705.795 288.476 705.538 282.891C705.41 280.409 705.923 267.584 702.33 266.032C702.587 266.136 703.1 265.826 703.1 265.619C703.1 265.308 703.1 264.998 703.1 264.791C703.1 264.688 703.1 264.688 703.1 264.584C713.622 253.621 722.861 241.727 732.099 229.419C745.701 211.423 761.227 177.706 748.909 155.469C750.064 155.055 750.962 154.125 750.962 153.194C750.962 147.919 748.909 143.575 746.343 139.334C747.369 139.955 748.396 140.576 749.55 141.093C751.09 141.817 753.4 140.162 753.657 139.024C756.736 126.923 745.059 112.133 733.768 104.893C733.254 104.583 732.099 105.307 732.613 105.721C739.542 112.34 749.037 125.268 749.422 135.508C746.343 133.439 743.648 131.06 739.927 129.405C738.515 128.785 735.436 130.853 736.206 132.095C740.183 138.3 744.931 143.885 746.086 150.711C745.829 150.608 745.573 150.401 745.316 150.298C744.161 148.85 742.75 147.505 741.338 146.264C739.67 144.816 735.949 147.609 737.104 149.16C738.002 150.401 739.029 151.539 740.183 152.573C747.241 161.985 746.984 175.948 745.316 186.083C742.621 202.942 735.307 217.732 724.144 232.005C715.29 243.279 707.078 254.759 696.684 265.102C684.751 276.996 669.866 286.718 654.468 295.406C655.11 277.927 653.827 260.344 648.823 243.382C642.792 222.386 631.243 200.046 609.686 186.497C609.173 186.29 608.146 186.911 608.66 187.325C626.496 202.321 635.221 223.214 641.637 242.968C648.823 265.102 648.694 288.373 646.898 311.023C644.845 334.501 639.199 357.772 629.96 380.216C625.212 391.8 619.31 402.97 611.868 413.726C606.735 421.38 599.934 428.309 594.93 436.17C591.337 438.445 587.488 439.273 583.125 440.203C580.302 440.72 576.196 440.41 576.196 437.618C576.196 435.342 577.864 433.067 578.121 430.688C578.249 429.861 576.709 430.585 576.453 430.895C574.913 433.17 570.807 436.273 569.395 439.376C566.444 440.203 563.108 440.927 560.028 440.617C552.714 440.1 556.82 431.929 557.847 428.826C558.103 427.792 556.564 428.413 556.179 428.826C554.254 431.412 550.533 435.653 549.763 439.272C547.966 439.272 546.555 438.652 545.528 437.721C545.143 437.411 544.887 437.204 544.502 436.894C544.502 436.79 544.63 436.687 544.63 436.583C546.427 424.069 551.303 412.588 551.816 399.867C552.201 387.352 549.378 374.838 546.812 362.53C539.754 338.224 528.206 314.953 507.804 296.13C510.498 299.646 513.065 303.37 515.503 307.093C495.1 308.748 473.158 306.576 454.168 300.37C436.46 294.475 408.872 277.409 408.359 260.241C408.359 258.069 404.124 260.034 404.124 261.585C403.996 266.86 404.509 280.305 399.633 268.722C396.426 261.171 395.527 253.414 396.426 245.554C394.629 248.346 393.474 251.346 392.704 254.449C392.448 257.758 392.704 261.068 393.346 264.481C394.116 267.894 395.014 277.513 400.018 279.374C404.509 281.029 406.691 277.203 407.717 272.548C415.031 285.787 432.354 296.337 447.367 302.232C453.398 304.611 460.198 306.576 467.512 308.024C455.066 329.743 455.194 355.393 456.862 378.768C457.76 391.282 458.017 403.694 456.477 416.208C455.322 424.379 451.601 431.826 444.031 437.514C440.566 440.203 436.973 442.272 432.611 443.823C429.018 446.409 424.912 448.271 421.062 447.65C411.823 446.099 417.983 438.031 421.062 433.481C420.806 433.481 420.421 433.687 420.164 433.894C413.748 438.238 409.257 444.547 412.337 447.96C407.974 449.512 403.226 450.649 400.66 446.616C397.837 442.168 404.124 436.17 406.434 432.446C406.947 431.722 405.664 431.722 405.279 432.239C402.841 435.135 398.479 438.962 396.682 442.892C395.271 440.824 397.324 437.514 398.094 435.135C404.638 425.517 394.629 414.864 388.598 406.383C376.408 388.8 367.298 371.528 359.214 352.497C351.643 334.708 347.922 316.505 344.329 297.991C340.223 277.409 342.918 256.517 356.006 238.107C356.776 236.969 355.365 236.452 354.21 237.073C350.489 239.141 347.794 241.313 344.971 244.106C340.737 244.83 339.582 244.002 341.635 241.624C343.431 237.797 345.356 233.97 347.537 230.35C349.205 227.764 350.873 225.179 352.927 222.49C353.568 221.559 354.21 220.835 354.98 220.007C354.98 220.007 354.98 219.904 354.851 219.904C356.776 217.318 358.957 214.836 361.139 212.457C364.988 207.596 369.223 202.942 374.099 198.702C366.143 203.873 359.599 210.906 353.825 217.835C348.435 208.01 345.228 197.047 343.944 187.428C342.02 171.19 345.613 154.228 350.617 138.507C361.01 106.445 384.62 77.3817 415.16 55.4552C432.226 43.2509 452.115 37.7692 472.517 30.3225C493.176 22.6689 514.348 22.3586 536.675 23.0826C576.068 24.4272 613.022 32.2876 644.716 51.525C646 52.249 648.566 50.5942 647.539 49.5599C621.876 25.1511 579.275 19.1524 541.422 17.4976C560.67 12.8433 578.121 6.01716 598.779 4.36233C624.314 2.39722 652.03 5.81031 676.154 12.7399C724.144 26.4957 761.74 55.7655 781.886 92.9992C801.775 129.716 806.266 174.293 804.726 213.802Z" fill="#B07958"/>
<path d="M398.094 435.135C397.709 436.17 397.195 437.307 396.81 438.445C398.992 436.687 400.66 434.618 401.558 431.929C404.509 423.241 397.324 415.071 392.576 407.624C381.926 391.075 371.661 374.527 364.09 356.841C356.519 339.052 351.258 320.538 347.152 302.025C345.099 292.716 343.688 283.615 343.944 274.203C344.073 270.79 344.329 267.273 344.458 263.86C341.891 275.03 342.148 286.614 344.329 297.991C347.922 316.505 351.643 334.708 359.214 352.394C367.298 371.528 376.408 388.8 388.598 406.383C394.629 414.864 404.638 425.517 398.094 435.135Z" fill="#B07958"/>
<path d="M580.302 16.4633C589.541 13.6708 599.164 12.0159 608.916 10.8782C626.239 9.01654 644.075 9.01654 661.269 10.2577C664.092 10.4645 666.915 10.7748 669.61 10.9817C647.154 5.29317 622.133 2.60407 598.779 4.36233C578.249 6.01716 560.669 12.8433 541.422 17.4975C551.046 17.9113 561.054 18.6352 570.935 19.8764C574.014 18.6352 577.222 17.4975 580.302 16.4633Z" fill="#B07958"/>
<path d="M548.865 417.656C550.533 413.519 552.072 409.279 553.099 404.935C557.59 385.284 556.948 366.356 548.608 347.326C540.781 329.743 527.949 315.057 516.016 299.129C506.264 286.201 499.72 272.341 495.998 257.655C494.33 275.237 503.954 291.475 514.733 307.093C514.989 307.093 515.246 307.093 515.502 306.989C513.064 303.369 510.498 299.75 507.803 296.13C528.206 315.057 539.754 338.224 546.94 362.426C549.506 374.734 552.329 387.249 551.816 399.867C551.559 405.969 550.276 411.864 548.865 417.656Z" fill="#B07958"/>
<path opacity="0.5" d="M787.788 90.1032C768.541 51.4215 728.25 23.186 680.388 8.49934C669.61 5.18968 657.933 2.91429 646.128 1.46631C663.065 5.81024 678.977 12.6364 693.22 21.4277C709.002 31.0464 722.219 43.3542 730.944 57.7306C739.157 70.9692 744.161 86.4832 736.975 100.756C736.59 101.584 735.307 101.894 734.666 100.963C715.29 73.8652 680.26 56.1792 645.358 43.3542C669.481 60.006 682.184 85.6558 689.242 110.168C697.711 139.748 696.684 169.535 676.41 195.909C671.919 201.804 664.092 211.94 653.955 210.906C644.46 209.872 640.097 201.391 637.017 195.082C631.756 183.911 626.624 173.052 619.566 162.502C610.328 148.539 599.806 134.99 587.231 122.786C563.364 99.6185 535.391 76.968 501.131 64.143C482.654 57.2134 463.406 52.1455 443.389 48.9393C435.69 47.6981 427.991 47.181 420.164 46.9742C418.367 48.0084 416.571 49.1461 414.775 50.3872C381.797 72.3138 358.059 103.135 346.254 136.128C336.759 162.502 334.577 195.495 351.515 220.628C350.617 221.662 349.847 222.8 348.949 223.834C346.254 227.144 340.608 233.763 337.528 239.969C335.732 244.933 335.219 249.794 339.453 250.829C343.303 250.105 345.741 247.622 348.179 245.244C348.435 245.037 348.692 244.726 348.949 244.52C348.435 245.347 347.794 246.278 347.28 247.105C344.586 251.449 342.533 256 340.608 260.551C336.502 270.48 335.604 280.202 336.374 290.027C337.015 287.959 337.785 286.097 338.427 284.442C341.506 277.099 345.612 269.963 350.488 263.24C355.236 256.621 369.094 236.659 382.182 241.106C390.651 244.002 390.651 254.759 391.293 260.861C391.806 265.826 392.319 270.376 394.501 275.031C397.965 282.581 404.124 285.373 412.08 289.614C423.243 295.509 428.376 305.024 431.327 315.264C433.252 321.986 434.535 329.019 434.407 335.949C436.717 346.499 437.743 357.358 439.026 367.908C440.694 381.664 442.491 395.626 441.593 409.486C440.951 420.242 439.539 431.722 431.071 440.514C429.403 442.272 422.217 447.753 421.19 442.375C420.549 439.066 421.19 435.446 422.473 432.136C419.522 433.17 416.828 434.722 415.031 436.894C413.62 438.962 412.208 441.134 410.54 442.996C409 444.858 405.921 447.96 402.969 445.582C400.403 443.41 401.815 439.479 402.841 436.997C403.739 435.032 404.638 433.17 405.664 431.205C400.018 435.653 396.425 442.479 392.576 447.547C392.319 447.857 391.934 448.064 391.549 448.064C392.833 449.305 394.629 449.925 396.682 449.408C396.939 449.925 397.324 450.546 397.965 451.063C401.686 454.58 411.31 453.235 416.058 449.925C417.597 450.339 419.651 450.443 422.217 450.339C438.513 449.719 453.013 438.548 459.172 426.965C467.897 410.727 464.304 389.628 463.15 372.666C461.61 350.739 464.689 329.847 470.079 308.541C484.835 311.23 500.874 311.644 514.732 309.161C507.418 296.44 498.308 284.339 493.945 270.687C488.684 254.138 492.919 233.97 513.578 225.386C533.595 217.111 557.462 223.834 573.501 235.108C591.209 247.519 601.987 264.791 609.173 282.581C609.429 283.305 608.146 284.132 607.248 283.615C602.757 281.236 598.394 278.754 594.032 276.168C601.987 287.649 607.633 299.75 610.071 312.885C612.894 328.399 611.354 344.947 608.916 360.565C606.478 375.562 602.372 390.248 597.496 404.935C594.545 414.036 591.209 425.62 581.328 431.619C580.687 431.929 579.66 431.515 579.404 430.895C578.505 428.826 578.12 426.758 577.992 424.689C577.864 425 577.607 425.31 577.479 425.517C574.399 429.654 570.293 435.342 563.877 436.273C557.718 437.101 555.28 431.826 555.665 427.896C555.665 427.689 555.794 427.378 555.794 427.378C553.74 430.067 551.174 433.274 546.811 432.757C542.192 432.136 541.422 427.378 541.935 422.207C540.909 426.137 539.882 429.964 539.497 433.998C539.112 435.239 538.984 436.48 539.241 437.721C539.241 437.928 539.241 438.031 539.241 438.238C539.241 438.755 539.497 439.066 539.754 439.272C540.139 439.996 540.524 440.824 541.165 441.444C542.449 442.892 545.528 444.134 547.838 443.823C548.864 443.823 549.634 443.513 550.276 443.099C550.918 444.134 552.201 444.961 554.125 445.685C559.001 447.34 564.904 445.375 569.267 442.686C570.678 445.788 574.784 446.306 578.505 446.202C584.665 446.099 589.284 443.203 593.775 440.307C596.598 438.548 599.549 436.48 601.859 434.101C607.248 429.033 611.226 422.104 615.332 416.932C623.031 407.417 628.548 396.867 633.553 386.318C639.712 373.079 644.203 359.427 647.539 345.671C668.968 333.984 681.03 306.162 678.72 285.89C686.932 279.995 694.374 273.479 701.175 266.55C701.175 267.067 701.047 267.48 701.047 267.997C708.489 260.964 715.932 253.931 724.914 248.346C733.382 243.072 744.418 237.487 755.709 238.314C774.059 239.452 770.337 258.069 767.899 268.308C765.205 279.581 762.895 291.165 758.917 302.128C756.993 307.61 753.528 313.298 753.271 318.987C753.143 322.71 756.223 326.123 755.581 329.743C754.683 334.915 744.161 340.603 739.157 335.535C737.489 333.88 736.975 331.605 737.104 329.33C733.896 333.053 729.533 336.156 724.4 336.673C717.215 337.5 714.648 333.053 713.878 328.192C710.029 333.363 702.715 335.122 696.299 332.329C694.246 335.328 693.605 338.638 696.171 341.741C698.866 344.844 704.768 345.257 709.131 343.603C710.157 345.878 712.724 347.429 715.803 348.05C720.679 349.084 727.352 347.429 732.613 344.637C735.179 346.912 739.927 347.74 744.033 347.843C765.461 348.36 785.35 332.432 782.527 315.16L782.399 314.953C801.133 286.304 806.779 250.725 810.115 219.801C814.863 177.602 807.549 129.509 787.788 90.1032Z" fill="#B07958"/>
<path d="M557.718 25.4614C558.36 25.2545 559.001 24.9442 559.643 24.7374C552.072 23.91 544.502 23.3928 536.803 23.0825C514.348 22.3586 493.304 22.6688 472.645 30.3224C467.897 32.0807 463.15 33.7355 458.53 35.2869C468.796 33.115 479.317 30.8396 489.711 29.1847C510.883 25.7716 532.825 23.91 554.382 25.2545C555.537 25.2545 556.692 25.3579 557.718 25.4614Z" fill="#B07958"/>
<path d="M562.594 25.7717C571.063 26.5991 579.532 27.6334 587.744 29.1848C580.045 27.4265 572.09 26.1854 564.134 25.1511C563.621 25.358 563.108 25.5648 562.594 25.7717Z" fill="#B07958"/>
<path d="M573.373 62.6951C584.536 48.5256 580.943 27.2197 565.032 16.4633C550.533 6.74113 529.104 12.1193 514.476 18.2215C501.773 23.3929 490.096 32.5979 484.193 43.3543C482.14 42.7337 480.087 42.1131 478.163 41.4926C459.172 36.1144 438.77 34.7698 418.752 34.8733C400.018 34.9767 376.921 38.8035 358.957 47.4913C360.497 39.1138 360.882 30.5293 355.878 23.186C346.126 9.11995 320.719 16.6701 308.401 23.186C290.822 32.4944 276.963 49.7667 277.862 67.039C278.503 79.9674 289.795 87.1039 302.883 87.3107C298.136 90.4135 293.773 94.0335 290.052 98.5842C285.432 104.169 267.211 125.889 276.579 132.508C277.22 132.922 277.99 132.922 278.632 132.715C279.017 132.612 279.273 132.405 279.658 132.301C276.835 136.542 274.525 140.989 273.242 145.954C272.601 148.539 272.986 152.366 277.477 151.746C278.632 151.642 279.658 151.125 280.685 150.505C279.273 154.538 279.017 158.262 282.224 159.503C285.561 160.744 289.025 159.503 291.591 157.538C296.981 180.085 308.914 201.287 332.268 215.664C356.134 230.35 387.058 234.384 416.314 232.315C473.8 228.282 534.365 189.083 546.17 142.748C550.276 143.058 556.178 143.575 557.975 140.369C559.386 137.68 558.873 134.577 557.205 131.577C560.926 132.715 564.006 132.198 564.647 127.544C565.161 123.2 561.439 118.546 558.103 115.029C560.285 115.96 562.466 116.581 564.391 117.098C566.315 117.511 568.112 116.063 568.368 114.719C570.422 104.48 560.67 91.5512 553.227 83.7942C552.457 82.8633 551.431 81.9325 550.404 81.0017C559.643 76.5543 567.47 70.3487 573.373 62.6951Z" fill="black"/>
<path d="M547.581 78.8297C545.143 77.1749 542.32 75.5201 539.498 74.4858C541.551 76.5543 543.732 78.416 545.657 80.588C548.608 83.6908 550.918 87.0005 553.099 90.4135C557.975 96.2055 563.493 105.204 563.878 112.547C560.926 111.513 558.103 110.272 554.767 109.548C554.254 109.444 553.484 109.651 552.714 109.961C550.276 107.582 547.453 105.204 544.374 103.135C547.068 106.962 550.019 110.789 552.714 114.719C555.922 119.373 559.771 123.924 561.055 129.199C561.311 130.233 559.9 130.957 558.873 130.233C555.409 127.544 551.431 125.372 547.453 123.2C548.993 125.786 550.019 128.371 550.918 131.164C553.612 134.991 555.922 139.334 552.971 139.128C549.763 138.921 547.581 138.61 544.63 139.748C543.86 140.058 541.679 142.024 542.962 142.541C538.343 153.814 533.21 165.708 524.87 175.534C517.299 184.429 506.905 191.979 497.025 199.322C474.826 215.87 443.774 225.799 413.876 228.075C383.722 230.35 353.953 223.317 330.343 208.113C310.711 195.495 299.675 175.327 293.131 156.09C293.645 155.676 294.03 155.159 294.286 154.745C294.414 154.538 294.414 154.331 294.414 154.021C292.105 155.573 289.282 156.607 287.101 155.055C285.304 153.607 285.432 151.539 286.331 149.574C286.716 145.954 289.025 141.3 290.693 139.128C292.361 136.956 288.512 137.163 287.229 138.404C286.074 139.438 279.017 145.023 279.145 146.161C278.76 143.472 281.07 140.162 281.968 137.576C282.481 136.128 283.123 134.68 284.021 133.336C284.534 131.681 285.304 130.026 285.946 128.371C284.149 128.578 282.481 128.371 281.198 127.544C276.579 124.338 280.685 118.649 283.636 115.133C284.278 113.788 284.919 112.754 285.047 112.443C288.127 107.065 291.72 101.791 295.954 96.9294C299.162 93.3095 303.012 90.2067 307.118 87.5176C310.197 84.7251 313.534 82.036 316.998 79.5537C315.073 80.4846 313.02 81.5188 311.096 82.5531C295.826 83.4839 285.432 75.3132 284.919 61.6609C284.149 45.216 302.627 29.3917 319.564 22.7723C335.347 16.6702 351.258 21.8415 355.236 35.1836C356.648 39.6309 356.648 44.2851 356.134 48.8359C356.006 48.9394 356.006 49.0428 355.878 49.0428C355.749 49.9736 355.621 50.9045 355.364 51.8353C357.418 51.3182 359.342 50.6976 361.267 50.0771C380.643 42.4235 403.996 40.0446 424.398 40.3549C443.774 40.6652 462.508 43.044 479.446 49.0428C480.344 49.2496 481.114 49.4565 482.012 49.6633C483.552 47.8017 485.22 45.94 487.016 44.1817C499.848 25.1512 531.029 9.74055 556.05 20.3935C571.448 26.9094 573.245 45.6297 569.652 57.6272C566.829 67.1425 557.975 74.0721 547.581 78.8297Z" fill="#B07958"/>
<path d="M487.53 50.2839C497.41 35.7007 515.631 23.186 535.905 20.2901C543.475 19.2558 551.944 19.6695 559.258 22.1518C558.231 21.5312 557.205 20.9106 556.05 20.3935C532.953 10.6714 504.724 22.8758 490.352 39.7343C489.326 43.2509 488.299 46.6639 487.53 50.2839Z" fill="#B07958"/>
<path d="M333.679 157.331C340.48 155.573 347.152 153.814 354.081 152.677C359.214 151.849 364.09 151.642 369.094 151.539C388.855 149.16 409 154.021 428.761 154.745C440.566 155.262 454.681 155.779 465.972 160.02C449.42 147.609 424.911 142.334 402.713 142.334C378.333 142.334 354.466 147.195 333.679 157.331Z" fill="#B07958"/>
<path d="M286.587 57.3169C289.41 46.2502 297.622 37.5624 308.657 30.7362C318.794 24.5306 331.498 19.7729 344.073 24.2203C346.895 25.1511 349.205 26.4957 351.258 27.9437C344.586 20.1866 332.139 17.9112 319.564 22.7723C302.627 29.3916 284.149 45.216 284.791 61.5574C284.919 64.2465 285.432 66.6253 286.202 68.9007C285.432 65.1774 285.561 61.2471 286.587 57.3169Z" fill="#B07958"/>
<path opacity="0.5" d="M569.652 57.6272C570.806 53.697 571.448 48.9394 571.191 44.1817C564.904 50.3873 557.718 44.492 553.227 39.8378C547.581 34.0459 540.267 31.4602 531.029 32.9082C524.613 33.9425 518.582 36.3213 513.449 39.5275C502.414 46.3537 494.202 55.4553 486.246 64.5568C485.605 65.2808 484.065 65.2808 483.808 64.35C482.269 58.1444 483.167 51.7319 485.733 45.6297C484.45 46.9742 483.167 48.3188 481.884 49.7668C481.114 49.4565 480.344 49.2496 479.574 49.0428C462.508 43.044 443.774 40.6652 424.398 40.3549C403.868 40.0446 380.643 42.4235 361.267 50.0771C359.599 50.5942 357.802 51.2148 356.006 51.7319C354.209 53.8004 351.771 55.6621 348.564 56.7998C344.073 58.3512 344.329 55.869 343.431 53.0764C340.993 45.6297 333.166 38.0795 323.414 36.6316C297.237 32.8048 281.839 65.4877 297.237 80.2777C301.087 82.036 305.834 82.76 311.095 82.4497C313.02 81.4154 315.073 80.4846 317.126 79.4503C313.533 82.036 310.326 84.7251 307.118 87.5176C303.012 90.2067 299.162 93.3095 295.954 96.9294C291.72 101.791 288.127 107.065 284.919 112.34C284.791 112.754 284.149 113.788 283.508 115.029C280.556 118.546 276.578 124.338 281.07 127.44C282.353 128.371 284.021 128.475 285.817 128.268C285.176 130.026 284.534 131.681 283.892 133.336C283.123 134.68 282.481 136.128 281.968 137.576C281.07 140.162 278.76 143.472 279.145 146.161C279.016 145.023 286.074 139.438 287.1 138.404C288.384 137.163 292.361 136.956 290.565 139.128C289.025 141.3 286.715 145.954 286.33 149.574C285.432 151.539 285.304 153.607 287.1 155.055C289.153 156.71 292.105 155.676 294.414 154.125C294.414 154.331 294.543 154.538 294.286 154.849C294.029 155.262 293.644 155.676 293.131 156.09C299.675 175.224 310.71 195.392 330.343 208.113C353.953 223.317 383.722 230.35 413.748 228.075C443.774 225.799 474.826 215.87 497.025 199.322C506.777 191.979 517.299 184.429 524.869 175.534C533.21 165.708 538.343 153.814 542.962 142.541C541.679 142.127 543.86 140.058 544.63 139.748C547.581 138.611 549.891 138.921 553.099 139.128C555.922 139.334 553.612 134.991 550.917 131.164C550.019 128.475 548.993 125.786 547.453 123.2C551.431 125.372 555.409 127.44 558.873 130.129C559.9 130.853 561.311 130.129 561.054 129.095C559.771 123.717 555.922 119.27 552.714 114.615C550.019 110.789 547.196 106.962 544.373 103.135C547.453 105.204 550.276 107.686 552.842 110.065C553.484 109.754 554.382 109.444 554.895 109.651C558.103 110.375 561.054 111.513 564.006 112.65C563.492 105.204 557.975 96.2055 553.099 90.4136C550.917 87.0005 548.608 83.6908 545.657 80.588C543.732 78.5195 541.55 76.5543 539.497 74.4858C542.449 75.5201 545.143 77.0715 547.581 78.8297C557.975 74.0721 566.829 67.1425 569.652 57.6272ZM514.861 132.819C514.732 133.543 513.449 134.267 512.551 133.543C508.958 130.233 505.109 126.923 501.388 123.614C506.007 131.991 508.573 140.886 507.547 150.194C505.494 166.639 482.012 188.979 459.685 178.947C447.623 173.465 440.951 163.019 431.199 155.469C419.009 146.161 404.638 141.817 387.957 144.092C359.085 147.919 336.502 165.191 323.799 185.773C323.542 186.187 323.029 186.29 322.516 186.187C322.259 186.601 322.002 187.014 321.617 187.428C321.361 187.945 320.462 188.152 319.949 187.842C300.958 176.878 298.52 153.09 310.582 137.473C306.476 140.265 302.755 143.265 298.649 146.057C297.879 146.471 296.724 146.368 296.467 145.54C293.26 135.611 303.525 127.647 312.635 121.338C306.476 123.717 300.958 127.027 296.082 131.06C295.313 131.681 293.773 131.267 293.901 130.336C294.286 124.751 298.007 120.304 302.498 116.27C298.905 118.339 295.569 120.718 292.618 123.407C291.72 124.234 290.18 123.407 290.437 122.372C295.569 103.238 314.688 87.2073 333.166 75.5201C334.834 74.4858 336.374 73.555 338.042 72.6241C347.28 66.3151 357.674 61.7643 369.992 58.9718C390.266 54.421 409.899 52.3525 430.942 54.3176C460.07 57.1101 492.534 65.5911 504.467 89.3793C504.852 90.2067 503.697 90.9307 502.799 90.7238C501.773 90.517 500.746 90.2067 499.72 89.9999C500.874 90.9307 502.029 91.965 503.056 92.8958C508.06 97.4466 513.578 102.515 515.631 108.41C516.657 111.513 516.529 118.029 510.498 116.167C510.113 116.167 509.728 115.96 509.343 115.857C513.449 121.131 515.759 126.923 514.861 132.819Z" fill="#B07958"/>
<path d="M433.637 158.986C430.429 145.54 419.522 137.163 402.585 136.439C387.7 135.818 375.253 142.23 364.86 150.194C342.404 165.501 323.542 190.117 322.387 212.871C320.976 243.382 385.005 233.867 405.279 227.661C437.486 217.732 439.026 181.946 433.637 158.986Z" fill="black"/>
<path d="M327.52 215.25C345.099 202.942 376.151 204.39 396.04 211.32C404.766 214.422 390.138 218.249 386.802 219.18C380.386 221.145 373.457 222.076 366.656 222.8C357.931 223.731 330.728 225.593 327.52 215.25Z" fill="black"/>
<path d="M428.761 199.115C423.885 216.698 409.514 224.868 388.598 228.488C372.944 231.281 348.564 232.832 335.475 225.179C343.944 227.144 355.108 226.73 361.139 226.42C371.66 225.903 400.531 223.42 404.381 213.078C407.332 205.217 368.837 202.942 364.346 203.149C354.209 203.563 334.834 206.045 326.75 213.492C326.365 211.423 326.365 209.044 326.75 206.458C329.829 185.049 348.564 163.743 368.837 149.263C379.231 142.747 390.01 138.3 404.124 139.231C420.42 140.265 427.478 153.09 430.172 164.157C432.995 176.154 432.097 187.221 428.761 199.115Z" fill="#F6EED4"/>
<path d="M430.172 164.157C427.606 153.09 420.42 140.265 404.124 139.231C390.01 138.3 379.231 142.748 368.966 149.16C367.811 149.987 366.656 150.815 365.501 151.642C378.204 145.333 402.071 137.68 406.691 153.711C408.872 161.054 407.332 168.811 405.151 175.948C403.354 182.153 402.456 189.6 399.12 195.288C394.886 202.528 386.032 201.184 377.563 201.908C374.098 202.321 370.506 202.632 367.041 203.045C376.921 203.459 407.076 205.941 404.381 212.974C400.531 223.317 371.66 225.903 361.138 226.317C355.236 226.627 343.944 227.144 335.475 225.179C348.564 232.832 372.944 231.281 388.47 228.488C409.514 224.869 423.885 216.698 428.761 199.115C432.097 187.221 432.995 176.154 430.172 164.157Z" fill="#F6EED4"/>
<path d="M316.228 37.2521C308.914 38.1829 303.781 41.3891 300.189 46.6639C296.852 51.525 296.467 60.6265 301.343 64.9705C301.857 65.3842 302.883 64.5568 302.498 64.1431C298.905 59.5923 301.215 51.2147 303.653 46.9742C308.529 38.7 320.334 40.0446 327.135 45.2159C335.732 51.8353 338.683 61.1437 340.736 70.1418C340.865 70.8658 342.405 69.935 342.405 69.4178C343.174 57.5237 336.759 34.6664 316.228 37.2521Z" fill="black"/>
<path d="M549.378 37.3555C524.869 33.5287 500.489 52.5592 494.074 70.4521C493.689 71.5898 495.613 70.9692 495.998 70.3487C503.184 58.4546 514.219 49.6633 529.104 44.1816C538.727 40.6651 550.404 41.6994 555.408 49.7667C556.178 50.9044 557.846 57.11 555.793 57.7306C555.28 57.9374 554.51 59.0751 555.665 58.8683C559.515 58.4546 560.284 54.0072 560.541 51.525C561.439 45.2159 558.231 38.7 549.378 37.3555Z" fill="black"/>
<path d="M451.473 144.609C451.473 148.85 448.265 152.366 444.287 152.366C440.309 152.366 437.102 148.85 437.102 144.609C437.102 140.369 440.309 136.852 444.287 136.852C448.265 136.852 451.473 140.265 451.473 144.609Z" fill="black"/>
<path d="M444.287 141.506C444.287 142.851 443.261 143.885 442.106 143.885C440.951 143.885 439.925 142.851 439.925 141.506C439.925 140.162 440.951 139.128 442.106 139.128C443.261 139.231 444.287 140.265 444.287 141.506Z" fill="white"/>
<path d="M355.878 145.126C355.878 149.367 352.67 152.883 348.692 152.883C344.714 152.883 341.506 149.367 341.506 145.126C341.506 140.886 344.714 137.369 348.692 137.369C352.67 137.369 355.878 140.782 355.878 145.126Z" fill="black"/>
<path d="M346.382 144.402C347.587 144.402 348.564 143.337 348.564 142.024C348.564 140.71 347.587 139.645 346.382 139.645C345.178 139.645 344.201 140.71 344.201 142.024C344.201 143.337 345.178 144.402 346.382 144.402Z" fill="white"/>
<g filter="url(#filter0_i_424072_1305)">
<path d="M54.855 449L329.138 449C359.438 449 384 425.199 384 395.84V338.25C384 308.891 359.438 285.093 329.138 285.093H312.678C308.799 271.112 308.011 252.434 322.099 236C322.099 236 265.28 248.129 252.469 285.093H54.855C24.5618 285.093 0 308.891 0 338.25V395.84C0 425.199 24.5618 449 54.855 449Z" fill="white"/>
</g>
<path d="M312.197 285.227L312.298 285.593H312.678H329.138C359.177 285.593 383.5 309.182 383.5 338.25V395.84C383.5 424.908 359.177 448.5 329.138 448.5L54.855 448.5C24.823 448.5 0.5 424.908 0.5 395.84V338.25C0.5 309.182 24.8229 285.593 54.855 285.593H252.469H252.825L252.941 285.257C259.28 266.969 276.533 254.772 292.306 247.135C300.181 243.322 307.659 240.66 313.169 238.95C315.924 238.096 318.185 237.48 319.757 237.078C320.131 236.982 320.465 236.898 320.759 236.827C307.521 253.151 308.383 271.483 312.197 285.227Z" stroke="black"/>
<path d="M132.803 347V319.736H122.051V313.4H151.331V319.736H140.579V347H132.803ZM165.178 347.384C162.234 347.384 159.642 346.808 157.402 345.656C155.194 344.504 153.482 342.936 152.266 340.952C151.05 338.936 150.442 336.648 150.442 334.088C150.442 331.496 151.034 329.208 152.218 327.224C153.434 325.208 155.082 323.64 157.162 322.52C159.242 321.368 161.594 320.792 164.218 320.792C166.746 320.792 169.018 321.336 171.034 322.424C173.082 323.48 174.698 325.016 175.882 327.032C177.066 329.016 177.658 331.4 177.658 334.184C177.658 334.472 177.642 334.808 177.61 335.192C177.578 335.544 177.546 335.88 177.514 336.2H156.538V331.832H173.578L170.698 333.128C170.698 331.784 170.426 330.616 169.882 329.624C169.338 328.632 168.586 327.864 167.626 327.32C166.666 326.744 165.546 326.456 164.266 326.456C162.986 326.456 161.85 326.744 160.858 327.32C159.898 327.864 159.146 328.648 158.602 329.672C158.058 330.664 157.786 331.848 157.786 333.224V334.376C157.786 335.784 158.09 337.032 158.698 338.12C159.338 339.176 160.218 339.992 161.338 340.568C162.49 341.112 163.834 341.384 165.37 341.384C166.746 341.384 167.946 341.176 168.97 340.76C170.026 340.344 170.986 339.72 171.85 338.888L175.834 343.208C174.65 344.552 173.162 345.592 171.37 346.328C169.578 347.032 167.514 347.384 165.178 347.384ZM178.676 347L190.244 331.832L190.1 335.96L179.012 321.176H187.412L194.42 330.824L191.252 330.92L198.5 321.176H206.468L195.332 335.816V331.784L206.852 347H198.356L191.012 336.728L194.132 337.16L186.836 347H178.676ZM221.047 347.384C218.007 347.384 215.639 346.616 213.943 345.08C212.247 343.512 211.399 341.192 211.399 338.12V315.464H218.887V338.024C218.887 339.112 219.175 339.96 219.751 340.568C220.327 341.144 221.111 341.432 222.103 341.432C223.287 341.432 224.295 341.112 225.127 340.472L227.143 345.752C226.375 346.296 225.447 346.712 224.359 347C223.303 347.256 222.199 347.384 221.047 347.384ZM207.415 327.512V321.752H225.319V327.512H207.415ZM242.838 347.384C240.086 347.384 237.638 346.808 235.494 345.656C233.382 344.504 231.702 342.936 230.454 340.952C229.238 338.936 228.63 336.648 228.63 334.088C228.63 331.496 229.238 329.208 230.454 327.224C231.702 325.208 233.382 323.64 235.494 322.52C237.638 321.368 240.086 320.792 242.838 320.792C245.558 320.792 247.99 321.368 250.134 322.52C252.278 323.64 253.958 325.192 255.174 327.176C256.39 329.16 256.998 331.464 256.998 334.088C256.998 336.648 256.39 338.936 255.174 340.952C253.958 342.936 252.278 344.504 250.134 345.656C247.99 346.808 245.558 347.384 242.838 347.384ZM242.838 341.24C244.086 341.24 245.206 340.952 246.198 340.376C247.19 339.8 247.974 338.984 248.55 337.928C249.126 336.84 249.414 335.56 249.414 334.088C249.414 332.584 249.126 331.304 248.55 330.248C247.974 329.192 247.19 328.376 246.198 327.8C245.206 327.224 244.086 326.936 242.838 326.936C241.59 326.936 240.47 327.224 239.478 327.8C238.486 328.376 237.686 329.192 237.078 330.248C236.502 331.304 236.214 332.584 236.214 334.088C236.214 335.56 236.502 336.84 237.078 337.928C237.686 338.984 238.486 339.8 239.478 340.376C240.47 340.952 241.59 341.24 242.838 341.24ZM112.155 419.384C109.371 419.384 106.891 418.824 104.715 417.704C102.539 416.552 100.827 414.968 99.5788 412.952C98.3628 410.936 97.7548 408.648 97.7548 406.088C97.7548 403.496 98.3628 401.208 99.5788 399.224C100.827 397.208 102.539 395.64 104.715 394.52C106.891 393.368 109.371 392.792 112.155 392.792C114.875 392.792 117.243 393.368 119.259 394.52C121.275 395.64 122.763 397.256 123.723 399.368L117.915 402.488C117.243 401.272 116.395 400.376 115.371 399.8C114.379 399.224 113.291 398.936 112.107 398.936C110.827 398.936 109.675 399.224 108.651 399.8C107.627 400.376 106.811 401.192 106.203 402.248C105.627 403.304 105.339 404.584 105.339 406.088C105.339 407.592 105.627 408.872 106.203 409.928C106.811 410.984 107.627 411.8 108.651 412.376C109.675 412.952 110.827 413.24 112.107 413.24C113.291 413.24 114.379 412.968 115.371 412.424C116.395 411.848 117.243 410.936 117.915 409.688L123.723 412.856C122.763 414.936 121.275 416.552 119.259 417.704C117.243 418.824 114.875 419.384 112.155 419.384ZM139.994 419.384C137.242 419.384 134.794 418.808 132.65 417.656C130.538 416.504 128.858 414.936 127.61 412.952C126.394 410.936 125.786 408.648 125.786 406.088C125.786 403.496 126.394 401.208 127.61 399.224C128.858 397.208 130.538 395.64 132.65 394.52C134.794 393.368 137.242 392.792 139.994 392.792C142.714 392.792 145.146 393.368 147.29 394.52C149.434 395.64 151.114 397.192 152.33 399.176C153.546 401.16 154.154 403.464 154.154 406.088C154.154 408.648 153.546 410.936 152.33 412.952C151.114 414.936 149.434 416.504 147.29 417.656C145.146 418.808 142.714 419.384 139.994 419.384ZM139.994 413.24C141.242 413.24 142.362 412.952 143.354 412.376C144.346 411.8 145.13 410.984 145.706 409.928C146.282 408.84 146.57 407.56 146.57 406.088C146.57 404.584 146.282 403.304 145.706 402.248C145.13 401.192 144.346 400.376 143.354 399.8C142.362 399.224 141.242 398.936 139.994 398.936C138.746 398.936 137.626 399.224 136.634 399.8C135.642 400.376 134.842 401.192 134.234 402.248C133.658 403.304 133.37 404.584 133.37 406.088C133.37 407.56 133.658 408.84 134.234 409.928C134.842 410.984 135.642 411.8 136.634 412.376C137.626 412.952 138.746 413.24 139.994 413.24ZM174.423 419.384C172.247 419.384 170.343 418.904 168.711 417.944C167.079 416.984 165.799 415.528 164.871 413.576C163.975 411.592 163.527 409.096 163.527 406.088C163.527 403.048 163.959 400.552 164.823 398.6C165.687 396.648 166.935 395.192 168.567 394.232C170.199 393.272 172.151 392.792 174.423 392.792C176.855 392.792 179.031 393.352 180.951 394.472C182.903 395.56 184.439 397.096 185.559 399.08C186.711 401.064 187.287 403.4 187.287 406.088C187.287 408.808 186.711 411.16 185.559 413.144C184.439 415.128 182.903 416.664 180.951 417.752C179.031 418.84 176.855 419.384 174.423 419.384ZM159.159 428.312V393.176H166.311V398.456L166.167 406.136L166.647 413.768V428.312H159.159ZM173.127 413.24C174.375 413.24 175.479 412.952 176.439 412.376C177.431 411.8 178.215 410.984 178.791 409.928C179.399 408.84 179.703 407.56 179.703 406.088C179.703 404.584 179.399 403.304 178.791 402.248C178.215 401.192 177.431 400.376 176.439 399.8C175.479 399.224 174.375 398.936 173.127 398.936C171.879 398.936 170.759 399.224 169.767 399.8C168.775 400.376 167.991 401.192 167.415 402.248C166.839 403.304 166.551 404.584 166.551 406.088C166.551 407.56 166.839 408.84 167.415 409.928C167.991 410.984 168.775 411.8 169.767 412.376C170.759 412.952 171.879 413.24 173.127 413.24ZM192.3 419V393.176H199.788V419H192.3ZM196.044 389.576C194.668 389.576 193.548 389.176 192.684 388.376C191.82 387.576 191.388 386.584 191.388 385.4C191.388 384.216 191.82 383.224 192.684 382.424C193.548 381.624 194.668 381.224 196.044 381.224C197.42 381.224 198.54 381.608 199.404 382.376C200.268 383.112 200.7 384.072 200.7 385.256C200.7 386.504 200.268 387.544 199.404 388.376C198.572 389.176 197.452 389.576 196.044 389.576ZM222.577 419V413.96L222.097 412.856V403.832C222.097 402.232 221.601 400.984 220.609 400.088C219.649 399.192 218.161 398.744 216.145 398.744C214.769 398.744 213.409 398.968 212.065 399.416C210.753 399.832 209.633 400.408 208.705 401.144L206.017 395.912C207.425 394.92 209.121 394.152 211.105 393.608C213.089 393.064 215.105 392.792 217.153 392.792C221.089 392.792 224.145 393.72 226.321 395.576C228.497 397.432 229.585 400.328 229.585 404.264V419H222.577ZM214.705 419.384C212.689 419.384 210.961 419.048 209.521 418.376C208.081 417.672 206.977 416.728 206.209 415.544C205.441 414.36 205.057 413.032 205.057 411.56C205.057 410.024 205.425 408.68 206.161 407.528C206.929 406.376 208.129 405.48 209.761 404.84C211.393 404.168 213.521 403.832 216.145 403.832H223.009V408.2H216.961C215.201 408.2 213.985 408.488 213.313 409.064C212.673 409.64 212.353 410.36 212.353 411.224C212.353 412.184 212.721 412.952 213.457 413.528C214.225 414.072 215.265 414.344 216.577 414.344C217.825 414.344 218.945 414.056 219.937 413.48C220.929 412.872 221.649 411.992 222.097 410.84L223.249 414.296C222.705 415.96 221.713 417.224 220.273 418.088C218.833 418.952 216.977 419.384 214.705 419.384ZM247.638 419.384C245.206 419.384 243.014 418.84 241.062 417.752C239.11 416.632 237.558 415.08 236.406 413.096C235.286 411.112 234.726 408.776 234.726 406.088C234.726 403.368 235.286 401.016 236.406 399.032C237.558 397.048 239.11 395.512 241.062 394.424C243.014 393.336 245.206 392.792 247.638 392.792C249.814 392.792 251.718 393.272 253.35 394.232C254.982 395.192 256.246 396.648 257.142 398.6C258.038 400.552 258.486 403.048 258.486 406.088C258.486 409.096 258.054 411.592 257.19 413.576C256.326 415.528 255.078 416.984 253.446 417.944C251.846 418.904 249.91 419.384 247.638 419.384ZM248.934 413.24C250.15 413.24 251.254 412.952 252.246 412.376C253.238 411.8 254.022 410.984 254.598 409.928C255.206 408.84 255.51 407.56 255.51 406.088C255.51 404.584 255.206 403.304 254.598 402.248C254.022 401.192 253.238 400.376 252.246 399.8C251.254 399.224 250.15 398.936 248.934 398.936C247.686 398.936 246.566 399.224 245.574 399.8C244.582 400.376 243.782 401.192 243.174 402.248C242.598 403.304 242.31 404.584 242.31 406.088C242.31 407.56 242.598 408.84 243.174 409.928C243.782 410.984 244.582 411.8 245.574 412.376C246.566 412.952 247.686 413.24 248.934 413.24ZM255.702 419V413.72L255.846 406.04L255.366 398.408V383.384H262.854V419H255.702ZM282.072 419.384C279.32 419.384 276.872 418.808 274.728 417.656C272.616 416.504 270.936 414.936 269.688 412.952C268.472 410.936 267.864 408.648 267.864 406.088C267.864 403.496 268.472 401.208 269.688 399.224C270.936 397.208 272.616 395.64 274.728 394.52C276.872 393.368 279.32 392.792 282.072 392.792C284.792 392.792 287.224 393.368 289.368 394.52C291.512 395.64 293.192 397.192 294.408 399.176C295.624 401.16 296.232 403.464 296.232 406.088C296.232 408.648 295.624 410.936 294.408 412.952C293.192 414.936 291.512 416.504 289.368 417.656C287.224 418.808 284.792 419.384 282.072 419.384ZM282.072 413.24C283.32 413.24 284.44 412.952 285.432 412.376C286.424 411.8 287.208 410.984 287.784 409.928C288.36 408.84 288.648 407.56 288.648 406.088C288.648 404.584 288.36 403.304 287.784 402.248C287.208 401.192 286.424 400.376 285.432 399.8C284.44 399.224 283.32 398.936 282.072 398.936C280.824 398.936 279.704 399.224 278.712 399.8C277.72 400.376 276.92 401.192 276.312 402.248C275.736 403.304 275.448 404.584 275.448 406.088C275.448 407.56 275.736 408.84 276.312 409.928C276.92 410.984 277.72 411.8 278.712 412.376C279.704 412.952 280.824 413.24 282.072 413.24Z" fill="black"/>
<defs>
<filter id="filter0_i_424072_1305" x="0" y="236" width="384" height="217" filterUnits="userSpaceOnUse" color-interpolation-filters="sRGB">
<feFlood flood-opacity="0" result="BackgroundImageFix"/>
<feBlend mode="normal" in="SourceGraphic" in2="BackgroundImageFix" result="shape"/>
<feColorMatrix in="SourceAlpha" type="matrix" values="0 0 0 0 0 0 0 0 0 0 0 0 0 0 0 0 0 0 127 0" result="hardAlpha"/>
<feOffset dy="4"/>
<feGaussianBlur stdDeviation="2"/>
<feComposite in2="hardAlpha" operator="arithmetic" k2="-1" k3="1"/>
<feColorMatrix type="matrix" values="0 0 0 0 0 0 0 0 0 0 0 0 0 0 0 0 0 0 0.25 0"/>
<feBlend mode="normal" in2="shape" result="effect1_innerShadow_424072_1305"/>
</filter>
</defs>
</svg>